<svg xmlns="http://www.w3.org/2000/svg" viewBox="0 0 100 100"><path style="fill:white;" d="M65.852 94.149a.998.998 0 0 0 .059-.209.95.95 0 0 0 .006-.177c0-.042.011-.084.004-.127l-3.506-23.447v-.004l-5.421-36.246c-.006-.038-.027-.069-.036-.107a.978.978 0 0 0-.168-.348c-.032-.043-.062-.086-.102-.125a1.04 1.04 0 0 0-.195-.143c-.032-.02-.056-.05-.091-.065-.011-.006-.022-.004-.032-.009a1.033 1.033 0 0 0-.277-.063c-.034-.004-.068-.019-.104-.02-.006 0-.012-.003-.019-.003H37.657c-.006 0-.01.003-.016.003-.041.001-.079.017-.119.021-.091.014-.181.027-.263.062-.011.005-.022.003-.034.009-.035.016-.058.046-.09.065a.985.985 0 0 0-.196.143c-.038.039-.068.082-.101.125a.9.9 0 0 0-.168.348c-.01.038-.03.069-.036.107l-5.421 36.246v.004l-3.507 23.447c-.007.043.005.085.004.127-.001.061-.003.117.006.177.012.073.034.141.06.209.019.05.035.1.062.148.042.074.099.138.158.199.025.026.038.06.066.084.009.006.017.008.024.014.045.035.098.057.147.085.062.033.118.07.183.091.01.003.018.011.028.014l18.083 5.176h.002c.009.003.017.003.023.005.088.022.175.035.26.035h.002c.087 0 .174-.013.259-.035l.022-.004.004-.001 18.083-5.176c.011-.003.018-.011.027-.014.065-.021.123-.058.184-.091.05-.028.103-.05.147-.085.007-.006.016-.008.024-.014.028-.024.04-.058.066-.084a1.08 1.08 0 0 0 .158-.199c.029-.048.044-.098.064-.148zM38.167 37.681l2.183 4.753-3.797 6.043 1.614-10.796zm18.907 10.796l-3.798-6.043 2.184-4.753 1.614 10.796zm-6.146-5.89l-3.079 6.704V37.686l3.079 4.901zm-3.079 26.444V56.498l4.473 5.083-4.473 7.45zm5.908-5.818l5.602 6.365-10.369 1.575 4.767-7.94zm-4.73-8.508l7.82-.665-3.408 5.679-4.412-5.014zm-.452-2.039l3.669-7.984 4.576 7.282-8.245.702zm-2.797-3.376l-3.079-6.703 3.079-4.901V49.29zm-.727 3.376l-8.245-.702 4.577-7.283 3.668 7.985zm-.451 2.039l-4.412 5.014-3.408-5.679 7.82.665zm1.178 1.794V69.03l-4.473-7.449 4.473-5.082zm-1.14 14.654l-10.37-1.575 5.603-6.365 4.767 7.94zm.039 2.1l-6.101 7.239-4.501-8.85 10.602 1.611zm1.101 1.905v19.489l-6.183-12.151 6.183-7.338zm2.071 0l6.181 7.338-6.181 12.151V75.158zm1.101-1.905l10.601-1.61-4.501 8.85-6.1-7.24zm5.925-11.903l3.302-5.5 1.668 11.148-4.97-5.648zm-2.914-21.01l-3.275-5.213h5.67l-2.395 5.213zm-10.295-.001l-2.394-5.212h5.668l-3.274 5.212zM35.45 55.85l3.303 5.5-4.97 5.648L35.45 55.85zm1.679 26.361l-6.835 8.113 2.491-16.652 4.344 8.539zm1.018 2.004l6.665 13.102-14.262-4.082 7.597-9.02zm17.332 0l7.597 9.02-14.262 4.082 6.665-13.102zm1.018-2.004l4.345-8.539 2.49 16.652-6.835-8.113zM68.364 15.802A7.927 7.927 0 1 0 66.508.056s-.702.083-1.915.307c-.606.11-1.336.231-2.172.512-.833.268-1.769.521-2.755.965-.979.467-2.047.896-3.085 1.577l-1.58 1.021c-.514.388-1.021.803-1.533 1.218-.25.213-.503.428-.756.646l-.705.721c-.462.491-.947.959-1.376 1.482-.84 1.069-1.645 2.154-2.296 3.32l-.506.853-.427.887c-.262.6-.562 1.166-.768 1.769l-.61 1.765c-.187.58-.311 1.173-.445 1.74a13.245 13.245 0 0 0-.312 1.684c-.074.553-.161 1.082-.208 1.601-.03 1.058-.122 2.016-.049 2.916.047.892.111 1.695.24 2.436.112.724.195 1.345.336 1.792l.423 1.464a.725.725 0 0 0 1.379.044l.516-1.434c.134-.479.384-.967.639-1.52.23-.544.587-1.16.955-1.817.319-.665.823-1.325 1.257-2.017.241-.34.509-.673.765-1.013a8.46 8.46 0 0 1 .833-.991c.306-.315.573-.652.886-.958l.96-.891c.309-.3.688-.536 1.02-.802l.495-.394.537-.337c.361-.212.677-.465 1.05-.635l1.063-.523c.342-.171.714-.28 1.05-.421l.499-.199.521-.131.96-.286.943-.163c.568-.173 1.186-.139 1.685-.23.503-.093 1.021-.022 1.429-.079.408-.056.802-.003 1.109-.009.62.011.966-.027.966-.027l.8-.091.038-.006zM29.053 13.451l.666-.056c.228.008.461.017.697.024.248-.017.498-.004.747.033.251.033.521.037.782.089.523.1 1.09.183 1.633.372.285.072.562.169.829.29.273.113.572.197.837.337l.815.405c.269.144.514.315.78.464.542.293.986.679 1.465 1.016.43.372.9.71 1.248 1.088.383.363.748.7 1.018 1.016.285.315.554.59.742.881l.648.848a.476.476 0 0 0 .854-.287l.004-1.067c.008-.329-.058-.761-.123-1.268a14.21 14.21 0 0 0-.317-1.681c-.13-.617-.383-1.239-.614-1.941-.299-.655-.587-1.394-1.01-2.087-.384-.727-.885-1.413-1.417-2.12-.559-.679-1.145-1.393-1.852-1.985-.672-.639-1.43-1.195-2.208-1.73-.393-.256-.812-.465-1.22-.693a9.057 9.057 0 0 0-1.25-.6c-.426-.165-.849-.332-1.267-.479-.43-.115-.85-.229-1.258-.34-.827-.225-1.621-.276-2.36-.372-.741-.076-1.408-.04-2.009-.032-.604.002-1.107.083-1.525.148-.839.125-1.31.232-1.31.232a5.148 5.148 0 0 0 1.575 10.147l.771-.063s.251-.02.68-.123c.216-.041.477-.139.77-.164.293-.022.632-.158.993-.175.358-.019.768-.149 1.186-.127zM80.885 27.037c-.039-.379-.056-.796-.177-1.262-.12-.462-.239-.96-.476-1.466-.208-.512-.516-1.011-.85-1.51-.369-.467-.765-.949-1.234-1.336-.457-.412-.977-.729-1.484-1.034-.525-.266-1.049-.521-1.587-.668-.525-.186-1.054-.277-1.554-.369-.511-.042-.986-.112-1.44-.095-.454 0-.875.029-1.259.082-.76.106-1.424.268-1.802.401l-.632.232a.244.244 0 0 0-.146.156.237.237 0 0 0 .162.293l.645.189c.433.098.937.288 1.561.558.312.116.636.266.961.445.336.146.653.37.982.56.306.239.639.426.911.694.294.237.531.524.778.772.212.282.419.548.56.834.18.258.271.549.375.805.094.263.183.507.217.76.087.229.083.483.127.698.063.209.022.441.063.623.036.183.016.363.028.508.006.289.039.459.039.459l.102.539a2.567 2.567 0 0 0 5.055-.096s.047-.296.076-.819c.018-.26.042-.573-.001-.953z"/></svg>